<svg viewBox="0 0 1000 600" xmlns="http://www.w3.org/2000/svg">
  <!-- Background -->
  <rect width="1000" height="600" fill="#f5f5f5"/>
  
  <!-- AWS Cloud -->
  <rect x="20" y="20" width="960" height="560" rx="10" fill="#232F3E" stroke="#17232F" stroke-width="2"/>
  <text x="50" y="60" font-family="Arial" font-size="24" fill="white">AWS Cloud</text>
  
  <!-- Multi-Region Setup -->
  <!-- US Region -->
  <rect x="40" y="80" width="300" height="480" rx="5" fill="#384860" stroke="#17232F" stroke-width="2"/>
  <text x="60" y="110" font-family="Arial" font-size="18" fill="white">US-EAST-1</text>
  
  <!-- EU Region -->
  <rect x="350" y="80" width="300" height="480" rx="5" fill="#384860" stroke="#17232F" stroke-width="2"/>
  <text x="370" y="110" font-family="Arial" font-size="18" fill="white">EU-WEST-1</text>
  
  <!-- APAC Region -->
  <rect x="660" y="80" width="300" height="480" rx="5" fill="#384860" stroke="#17232F" stroke-width="2"/>
  <text x="680" y="110" font-family="Arial" font-size="18" fill="white">AP-SOUTHEAST-1</text>
  
  <!-- US Region Components -->
  <!-- VPC -->
  <rect x="60" y="130" width="260" height="410" rx="5" fill="#566d86" stroke="#17232F" stroke-width="1"/>
  <text x="80" y="155" font-family="Arial" font-size="14" fill="white">VPC (10.0.0.0/16)</text>
  
  <!-- Availability Zones -->
  <rect x="70" y="170" width="115" height="360" rx="5" fill="#7892B5" stroke="#17232F" stroke-width="1"/>
  <text x="85" y="190" font-family="Arial" font-size="12" fill="white">AZ-1a</text>
  
  <rect x="195" y="170" width="115" height="360" rx="5" fill="#7892B5" stroke="#17232F" stroke-width="1"/>
  <text x="210" y="190" font-family="Arial" font-size="12" fill="white">AZ-1b</text>
  
  <!-- Public Subnet -->
  <rect x="80" y="210" width="95" height="60" rx="5" fill="#95DAC1" stroke="#17232F" stroke-width="1"/>
  <text x="90" y="240" font-family="Arial" font-size="10" fill="#232F3E">Public Subnet</text>
  
  <rect x="205" y="210" width="95" height="60" rx="5" fill="#95DAC1" stroke="#17232F" stroke-width="1"/>
  <text x="215" y="240" font-family="Arial" font-size="10" fill="#232F3E">Public Subnet</text>
  
  <!-- Private App Subnet -->
  <rect x="80" y="280" width="95" height="60" rx="5" fill="#FD7590" stroke="#17232F" stroke-width="1"/>
  <text x="85" y="310" font-family="Arial" font-size="10" fill="white">Private App Subnet</text>
  
  <rect x="205" y="280" width="95" height="60" rx="5" fill="#FD7590" stroke="#17232F" stroke-width="1"/>
  <text x="210" y="310" font-family="Arial" font-size="10" fill="white">Private App Subnet</text>
  
  <!-- Private Data Subnet -->
  <rect x="80" y="350" width="95" height="60" rx="5" fill="#FFA69E" stroke="#17232F" stroke-width="1"/>
  <text x="85" y="380" font-family="Arial" font-size="10" fill="#232F3E">Private Data Subnet</text>
  
  <rect x="205" y="350" width="95" height="60" rx="5" fill="#FFA69E" stroke="#17232F" stroke-width="1"/>
  <text x="210" y="380" font-family="Arial" font-size="10" fill="#232F3E">Private Data Subnet</text>
  
  <!-- Service Icons - US -->
  <!-- ALB -->
  <circle cx="128" cy="230" r="15" fill="#FF9E80" stroke="#232F3E" stroke-width="1"/>
  <text x="128" y="233" font-family="Arial" font-size="10" fill="#232F3E" text-anchor="middle">ALB</text>
  
  <circle cx="253" cy="230" r="15" fill="#FF9E80" stroke="#232F3E" stroke-width="1"/>
  <text x="253" y="233" font-family="Arial" font-size="10" fill="#232F3E" text-anchor="middle">ALB</text>
  
  <!-- EKS -->
  <circle cx="128" cy="310" r="15" fill="#80D8FF" stroke="#232F3E" stroke-width="1"/>
  <text x="128" y="313" font-family="Arial" font-size="10" fill="#232F3E" text-anchor="middle">EKS</text>
  
  <circle cx="253" cy="310" r="15" fill="#80D8FF" stroke="#232F3E" stroke-width="1"/>
  <text x="253" y="313" font-family="Arial" font-size="10" fill="#232F3E" text-anchor="middle">EKS</text>
  
  <!-- RDS -->
  <circle cx="128" cy="380" r="15" fill="#B388FF" stroke="#232F3E" stroke-width="1"/>
  <text x="128" y="383" font-family="Arial" font-size="10" fill="#232F3E" text-anchor="middle">RDS</text>
  
  <circle cx="253" cy="380" r="15" fill="#B388FF" stroke="#232F3E" stroke-width="1"/>
  <text x="253" y="383" font-family="Arial" font-size="10" fill="#232F3E" text-anchor="middle">RDS</text>
  
  <!-- Shared Services -->
  <rect x="80" y="420" width="220" height="80" rx="5" fill="#82B1FF" stroke="#17232F" stroke-width="1"/>
  <text x="95" y="445" font-family="Arial" font-size="12" fill="#232F3E">Shared Services</text>
  
  <!-- Shared Service Icons -->
  <circle cx="125" cy="465" r="12" fill="#FFCC80" stroke="#232F3E" stroke-width="1"/>
  <text x="125" y="468" font-family="Arial" font-size="8" fill="#232F3E" text-anchor="middle">S3</text>
  
  <circle cx="155" cy="465" r="12" fill="#FFCC80" stroke="#232F3E" stroke-width="1"/>
  <text x="155" y="468" font-family="Arial" font-size="8" fill="#232F3E" text-anchor="middle">SQS</text>
  
  <circle cx="185" cy="465" r="12" fill="#FFCC80" stroke="#232F3E" stroke-width="1"/>
  <text x="185" y="468" font-family="Arial" font-size="8" fill="#232F3E" text-anchor="middle">SNS</text>
  
  <circle cx="215" cy="465" r="12" fill="#FFCC80" stroke="#232F3E" stroke-width="1"/>
  <text x="215" y="468" font-family="Arial" font-size="8" fill="#232F3E" text-anchor="middle">CW</text>
  
  <circle cx="245" cy="465" r="12" fill="#FFCC80" stroke="#232F3E" stroke-width="1"/>
  <text x="245" y="468" font-family="Arial" font-size="8" fill="#232F3E" text-anchor="middle">X-Ray</text>
  
  <!-- EU Region Components - Similar structure but with different positions -->
  <!-- VPC -->
  <rect x="370" y="130" width="260" height="410" rx="5" fill="#566d86" stroke="#17232F" stroke-width="1"/>
  <text x="390" y="155" font-family="Arial" font-size="14" fill="white">VPC (10.1.0.0/16)</text>
  
  <!-- Availability Zones -->
  <rect x="380" y="170" width="115" height="360" rx="5" fill="#7892B5" stroke="#17232F" stroke-width="1"/>
  <text x="395" y="190" font-family="Arial" font-size="12" fill="white">AZ-1a</text>
  
  <rect x="505" y="170" width="115" height="360" rx="5" fill="#7892B5" stroke="#17232F" stroke-width="1"/>
  <text x="520" y="190" font-family="Arial" font-size="12" fill="white">AZ-1b</text>
  
  <!-- Public Subnet -->
  <rect x="390" y="210" width="95" height="60" rx="5" fill="#95DAC1" stroke="#17232F" stroke-width="1"/>
  <text x="400" y="240" font-family="Arial" font-size="10" fill="#232F3E">Public Subnet</text>
  
  <rect x="515" y="210" width="95" height="60" rx="5" fill="#95DAC1" stroke="#17232F" stroke-width="1"/>
  <text x="525" y="240" font-family="Arial" font-size="10" fill="#232F3E">Public Subnet</text>
  
  <!-- Private App Subnet -->
  <rect x="390" y="280" width="95" height="60" rx="5" fill="#FD7590" stroke="#17232F" stroke-width="1"/>
  <text x="395" y="310" font-family="Arial" font-size="10" fill="white">Private App Subnet</text>
  
  <rect x="515" y="280" width="95" height="60" rx="5" fill="#FD7590" stroke="#17232F" stroke-width="1"/>
  <text x="520" y="310" font-family="Arial" font-size="10" fill="white">Private App Subnet</text>
  
  <!-- Private Data Subnet -->
  <rect x="390" y="350" width="95" height="60" rx="5" fill="#FFA69E" stroke="#17232F" stroke-width="1"/>
  <text x="395" y="380" font-family="Arial" font-size="10" fill="#232F3E">Private Data Subnet</text>
  
  <rect x="515" y="350" width="95" height="60" rx="5" fill="#FFA69E" stroke="#17232F" stroke-width="1"/>
  <text x="520" y="380" font-family="Arial" font-size="10" fill="#232F3E">Private Data Subnet</text>
  
  <!-- Service Icons - EU -->
  <!-- ALB -->
  <circle cx="438" cy="230" r="15" fill="#FF9E80" stroke="#232F3E" stroke-width="1"/>
  <text x="438" y="233" font-family="Arial" font-size="10" fill="#232F3E" text-anchor="middle">ALB</text>
  
  <circle cx="563" cy="230" r="15" fill="#FF9E80" stroke="#232F3E" stroke-width="1"/>
  <text x="563" y="233" font-family="Arial" font-size="10" fill="#232F3E" text-anchor="middle">ALB</text>
  
  <!-- EKS -->
  <circle cx="438" cy="310" r="15" fill="#80D8FF" stroke="#232F3E" stroke-width="1"/>
  <text x="438" y="313" font-family="Arial" font-size="10" fill="#232F3E" text-anchor="middle">EKS</text>
  
  <circle cx="563" cy="310" r="15" fill="#80D8FF" stroke="#232F3E" stroke-width="1"/>
  <text x="563" y="313" font-family="Arial" font-size="10" fill="#232F3E" text-anchor="middle">EKS</text>
  
  <!-- RDS -->
  <circle cx="438" cy="380" r="15" fill="#B388FF" stroke="#232F3E" stroke-width="1"/>
  <text x="438" y="383" font-family="Arial" font-size="10" fill="#232F3E" text-anchor="middle">RDS</text>
  
  <circle cx="563" cy="380" r="15" fill="#B388FF" stroke="#232F3E" stroke-width="1"/>
  <text x="563" y="383" font-family="Arial" font-size="10" fill="#232F3E" text-anchor="middle">RDS</text>
  
  <!-- Shared Services -->
  <rect x="390" y="420" width="220" height="80" rx="5" fill="#82B1FF" stroke="#17232F" stroke-width="1"/>
  <text x="405" y="445" font-family="Arial" font-size="12" fill="#232F3E">Shared Services</text>
  
  <!-- Shared Service Icons -->
  <circle cx="435" cy="465" r="12" fill="#FFCC80" stroke="#232F3E" stroke-width="1"/>
  <text x="435" y="468" font-family="Arial" font-size="8" fill="#232F3E" text-anchor="middle">S3</text>
  
  <circle cx="465" cy="465" r="12" fill="#FFCC80" stroke="#232F3E" stroke-width="1"/>
  <text x="465" y="468" font-family="Arial" font-size="8" fill="#232F3E" text-anchor="middle">SQS</text>
  
  <circle cx="495" cy="465" r="12" fill="#FFCC80" stroke="#232F3E" stroke-width="1"/>
  <text x="495" y="468" font-family="Arial" font-size="8" fill="#232F3E" text-anchor="middle">SNS</text>
  
  <circle cx="525" cy="465" r="12" fill="#FFCC80" stroke="#232F3E" stroke-width="1"/>
  <text x="525" y="468" font-family="Arial" font-size="8" fill="#232F3E" text-anchor="middle">CW</text>
  
  <circle cx="555" cy="465" r="12" fill="#FFCC80" stroke="#232F3E" stroke-width="1"/>
  <text x="555" y="468" font-family="Arial" font-size="8" fill="#232F3E" text-anchor="middle">X-Ray</text>
  
  <!-- APAC Region Components - Similar structure but with different positions -->
  <!-- VPC -->
  <rect x="680" y="130" width="260" height="410" rx="5" fill="#566d86" stroke="#17232F" stroke-width="1"/>
  <text x="700" y="155" font-family="Arial" font-size="14" fill="white">VPC (10.2.0.0/16)</text>
  
  <!-- Availability Zones -->
  <rect x="690" y="170" width="115" height="360" rx="5" fill="#7892B5" stroke="#17232F" stroke-width="1"/>
  <text x="705" y="190" font-family="Arial" font-size="12" fill="white">AZ-1a</text>
  
  <rect x="815" y="170" width="115" height="360" rx="5" fill="#7892B5" stroke="#17232F" stroke-width="1"/>
  <text x="830" y="190" font-family="Arial" font-size="12" fill="white">AZ-1b</text>
  
  <!-- Public Subnet -->
  <rect x="700" y="210" width="95" height="60" rx="5" fill="#95DAC1" stroke="#17232F" stroke-width="1"/>
  <text x="710" y="240" font-family="Arial" font-size="10" fill="#232F3E">Public Subnet</text>
  
  <rect x="825" y="210" width="95" height="60" rx="5" fill="#95DAC1" stroke="#17232F" stroke-width="1"/>
  <text x="835" y="240" font-family="Arial" font-size="10" fill="#232F3E">Public Subnet</text>
  
  <!-- Private App Subnet -->
  <rect x="700" y="280" width="95" height="60" rx="5" fill="#FD7590" stroke="#17232F" stroke-width="1"/>
  <text x="705" y="310" font-family="Arial" font-size="10" fill="white">Private App Subnet</text>
  
  <rect x="825" y="280" width="95" height="60" rx="5" fill="#FD7590" stroke="#17232F" stroke-width="1"/>
  <text x="830" y="310" font-family="Arial" font-size="10" fill="white">Private App Subnet</text>
  
  <!-- Private Data Subnet -->
  <rect x="700" y="350" width="95" height="60" rx="5" fill="#FFA69E" stroke="#17232F" stroke-width="1"/>
  <text x="705" y="380" font-family="Arial" font-size="10" fill="#232F3E">Private Data Subnet</text>
  
  <rect x="825" y="350" width="95" height="60" rx="5" fill="#FFA69E" stroke="#17232F" stroke-width="1"/>
  <text x="830" y="380" font-family="Arial" font-size="10" fill="#232F3E">Private Data Subnet</text>
  
  <!-- Service Icons - APAC -->
  <!-- ALB -->
  <circle cx="748" cy="230" r="15" fill="#FF9E80" stroke="#232F3E" stroke-width="1"/>
  <text x="748" y="233" font-family="Arial" font-size="10" fill="#232F3E" text-anchor="middle">ALB</text>
  
  <circle cx="873" cy="230" r="15" fill="#FF9E80" stroke="#232F3E" stroke-width="1"/>
  <text x="873" y="233" font-family="Arial" font-size="10" fill="#232F3E" text-anchor="middle">ALB</text>
  
  <!-- EKS -->
  <circle cx="748" cy="310" r="15" fill="#80D8FF" stroke="#232F3E" stroke-width="1"/>
  <text x="748" y="313" font-family="Arial" font-size="10" fill="#232F3E" text-anchor="middle">EKS</text>
  
  <circle cx="873" cy="310" r="15" fill="#80D8FF" stroke="#232F3E" stroke-width="1"/>
  <text x="873" y="313" font-family="Arial" font-size="10" fill="#232F3E" text-anchor="middle">EKS</text>
  
  <!-- RDS -->
  <circle cx="748" cy="380" r="15" fill="#B388FF" stroke="#232F3E" stroke-width="1"/>
  <text x="748" y="383" font-family="Arial" font-size="10" fill="#232F3E" text-anchor="middle">RDS</text>
  
  <circle cx="873" cy="380" r="15" fill="#B388FF" stroke="#232F3E" stroke-width="1"/>
  <text x="873" y="383" font-family="Arial" font-size="10" fill="#232F3E" text-anchor="middle">RDS</text>
  
  <!-- Shared Services -->
  <rect x="700" y="420" width="220" height="80" rx="5" fill="#82B1FF" stroke="#17232F" stroke-width="1"/>
  <text x="715" y="445" font-family="Arial" font-size="12" fill="#232F3E">Shared Services</text>
  
  <!-- Shared Service Icons -->
  <circle cx="745" cy="465" r="12" fill="#FFCC80" stroke="#232F3E" stroke-width="1"/>
  <text x="745" y="468" font-family="Arial" font-size="8" fill="#232F3E" text-anchor="middle">S3</text>
  
  <circle cx="775" cy="465" r="12" fill="#FFCC80" stroke="#232F3E" stroke-width="1"/>
  <text x="775" y="468" font-family="Arial" font-size="8" fill="#232F3E" text-anchor="middle">SQS</text>
  
  <circle cx="805" cy="465" r="12" fill="#FFCC80" stroke="#232F3E" stroke-width="1"/>
  <text x="805" y="468" font-family="Arial" font-size="8" fill="#232F3E" text-anchor="middle">SNS</text>
  
  <circle cx="835" cy="465" r="12" fill="#FFCC80" stroke="#232F3E" stroke-width="1"/>
  <text x="835" y="468" font-family="Arial" font-size="8" fill="#232F3E" text-anchor="middle">CW</text>
  
  <circle cx="865" cy="465" r="12" fill="#FFCC80" stroke="#232F3E" stroke-width="1"/>
  <text x="865" y="468" font-family="Arial" font-size="8" fill="#232F3E" text-anchor="middle">X-Ray</text>
  
  <!-- Global Services -->
  <!-- CloudFront -->
  <ellipse cx="500" cy="40" rx="40" ry="20" fill="#FF8A65" stroke="#232F3E" stroke-width="1"/>
  <text x="500" y="45" font-family="Arial" font-size="12" fill="white" text-anchor="middle">CloudFront</text>
  
  <!-- Route 53 -->
  <ellipse cx="400" cy="40" rx="40" ry="20" fill="#AED581" stroke="#232F3E" stroke-width="1"/>
  <text x="400" y="45" font-family="Arial" font-size="12" fill="#232F3E" text-anchor="middle">Route 53</text>
  
  <!-- IAM -->
  <ellipse cx="600" cy="40" rx="40" ry="20" fill="#4DB6AC" stroke="#232F3E" stroke-width="1"/>
  <text x="600" y="45" font-family="Arial" font-size="12" fill="#232F3E" text-anchor="middle">IAM</text>
  
  <!-- Connection Lines -->
  <!-- CloudFront to ALBs -->
  <line x1="500" y1="60" x2="128" y2="215" stroke="#FFB74D" stroke-width="2" stroke-dasharray="5,3"/>
  <line x1="500" y1="60" x2="438" y2="215" stroke="#FFB74D" stroke-width="2" stroke-dasharray="5,3"/>
  <line x1="500" y1="60" x2="748" y2="215" stroke="#FFB74D" stroke-width="2" stroke-dasharray="5,3"/>
  
  <!-- Route 53 to CloudFront -->
  <line x1="440" y1="40" x2="460" y2="40" stroke="#FFB74D" stroke-width="2"/>
  
  <!-- Region Interconnect -->
  <line x1="300" y1="335" x2="350" y2="335" stroke="#4FC3F7" stroke-width="2" stroke-dasharray="10,5"/>
  <line x1="650" y1="335" x2="700" y2="335" stroke="#4FC3F7" stroke-width="2" stroke-dasharray="10,5"/>
  
  <!-- Legend -->
  <rect x="40" y="540" width="920" height="30" rx="5" fill="#232F3E" stroke="#17232F" stroke-width="1"/>
  
  <circle cx="70" cy="555" r="10" fill="#FF9E80" stroke="#232F3E" stroke-width="1"/>
  <text x="85" y="560" font-family="Arial" font-size="12" fill="white">ALB</text>
  
  <circle cx="130" cy="555" r="10" fill="#80D8FF" stroke="#232F3E" stroke-width="1"/>
  <text x="145" y="560" font-family="Arial" font-size="12" fill="white">EKS</text>
  
  <circle cx="190" cy="555" r="10" fill="#B388FF" stroke="#232F3E" stroke-width="1"/>
  <text x="205" y="560" font-family="Arial" font-size="12" fill="white">RDS</text>
  
  <rect x="240" y="545" width="20" height="20" rx="5" fill="#95DAC1" stroke="#232F3E" stroke-width="1"/>
  <text x="265" y="560" font-family="Arial" font-size="12" fill="white">Public Subnet</text>
  
  <rect x="360" y="545" width="20" height="20" rx="5" fill="#FD7590" stroke="#232F3E" stroke-width="1"/>
  <text x="385" y="560" font-family="Arial" font-size="12" fill="white">Private App Subnet</text>
  
  <rect x="500" y="545" width="20" height="20" rx="5" fill="#FFA69E" stroke="#232F3E" stroke-width="1"/>
  <text x="525" y="560" font-family="Arial" font-size="12" fill="white">Private Data Subnet</text>
  
  <line x1="600" y1="555" x2="650" y2="555" stroke="#FFB74D" stroke-width="2"/>
  <text x="660" y="560" font-family="Arial" font-size="12" fill="white">Direct Connection</text>
  
  <line x1="730" y1="555" x2="780" y2="555" stroke="#4FC3F7" stroke-width="2" stroke-dasharray="10,5"/>
  <text x="790" y="560" font-family="Arial" font-size="12" fill="white">Region Interconnect</text>
  
  <line x1="870" y1="555" x2="920" y2="555" stroke="#FFB74D" stroke-width="2" stroke-dasharray="5,3"/>
  <text x="930" y="560" font-family="Arial" font-size="12" fill="white">CDN Route</text>
</svg>
